<?xml version="1.0" encoding="utf-8"?>
<svg xmlns="http://www.w3.org/2000/svg" style="margin: auto; background: none; display: block; shape-rendering: auto;" width="271" height="157" preserveAspectRatio="xMidYMid">
<style type="text/css">
  text {
    text-anchor: middle; font-size: 80px; opacity: 0;
  }
</style>
<g style="transform-origin:135.5px 78.5px;transform:scale(1)">
<g transform="translate(135.5,78.5)">
  <g transform="translate(0,0)"><g class="path" style="transform: scale(0.91); transform-origin: -108.52px 0.356573px; animation: 1s linear -0.565714s infinite normal forwards running breath-09fc12ae-8f38-418b-978e-2e0ce36b42a8;"><path d="M8.56-24.08L2.24-24.08L2.72-29.44L9.36-29.44L10.72-37.76L16.72-38.32L15.28-29.44L21.44-29.44L22.80-37.76L28.72-38.32L27.28-29.44L34-29.44L33.52-24.08L26.40-24.08L25.52-18.16L31.76-18.16L31.28-12.72L24.64-12.72L23.28-4L17.28-3.44L18.72-12.72L12.64-12.72L11.28-4L5.28-3.44L6.72-12.72L0-12.72L0.48-18.16L7.60-18.16L8.56-24.08zM20.56-24.08L14.40-24.08L13.52-18.16L19.60-18.16L20.56-24.08" fill="#ffffff" stroke="none" stroke-width="none" transform="translate(-125.5200138092041,21.23657209123885)" style="fill: rgb(255, 255, 255);"></path></g><g class="path" style="transform: scale(0.91); transform-origin: -71.88px -6.32343px; animation: 1s linear -0.471429s infinite normal forwards running breath-09fc12ae-8f38-418b-978e-2e0ce36b42a8;"><path d="M35.04-7.28L41.28-15.92L41.28-15.92Q48.08-9.12 54.88-9.12L54.88-9.12L54.88-9.12Q58.40-9.12 60.52-10.76L60.52-10.76L60.52-10.76Q62.64-12.40 62.64-15L62.64-15L62.64-15Q62.64-17.60 60.08-19.40L60.08-19.40L60.08-19.40Q57.52-21.20 53.88-22.56L53.88-22.56L53.88-22.56Q50.24-23.92 46.64-25.64L46.64-25.64L46.64-25.64Q43.04-27.36 40.48-30.56L40.48-30.56L40.48-30.56Q37.92-33.76 37.92-38.32L37.92-38.32L37.92-38.32Q37.92-45.52 43.92-50.76L43.92-50.76L43.92-50.76Q49.92-56 58.16-56L58.16-56L58.16-56Q61.92-56 65.44-55.20L65.44-55.20L65.44-55.20Q68.96-54.40 72.24-52.88L72.24-52.88L66.80-41.20L66.80-41.20Q64.56-42.96 60.68-44.44L60.68-44.44L60.68-44.44Q56.80-45.92 53.88-45.92L53.88-45.92L53.88-45.92Q50.96-45.92 49.16-44.52L49.16-44.52L49.16-44.52Q47.36-43.12 47.36-40.80L47.36-40.80L47.36-40.80Q47.36-38.48 49.92-36.68L49.92-36.68L49.92-36.68Q52.48-34.88 56.12-33.52L56.12-33.52L56.12-33.52Q59.76-32.16 63.40-30.52L63.40-30.52L63.40-30.52Q67.04-28.88 69.60-25.68L69.60-25.68L69.60-25.68Q72.16-22.48 72.16-17.92L72.16-17.92L72.16-17.92Q72.16-10.40 66.16-4.76L66.16-4.76L66.16-4.76Q60.16 0.88 52.16 0.88L52.16 0.88L52.16 0.88Q46.16 0.88 41.52-2L41.52-2L41.52-2Q37.44-4.48 35.76-6.40L35.76-6.40L35.04-7.28" fill="#ffffff" stroke="none" stroke-width="none" transform="translate(-125.5200138092041,21.23657209123885)" style="fill: rgb(255, 255, 255);"></path></g><g class="path" style="transform: scale(0.91); transform-origin: -24.8px -6.12343px; animation: 1s linear -0.377143s infinite normal forwards running breath-09fc12ae-8f38-418b-978e-2e0ce36b42a8;"><path d="M80.64-53.60L92.00-55.60L91.12-29.52L111.52-55.44L119.68-50L101.28-28.64L120.80-5.52L110.56 0.88L91.04-26.72L90.88-20.80L91.84 0L80.64 0L81.60-19.44L80.64-53.60" fill="#ffffff" stroke="none" stroke-width="none" transform="translate(-125.5200138092041,21.23657209123885)" style="fill: rgb(245, 245, 241);"></path></g><g class="path" style="transform: scale(0.91); transform-origin: 7.03999px -6.56343px; animation: 1s linear -0.282857s infinite normal forwards running breath-09fc12ae-8f38-418b-978e-2e0ce36b42a8;"><path d="M126.88-53.60L138.24-55.60L137.12-20.80L138.08 0L126.88 0L127.84-19.44L126.88-53.60" fill="#ffffff" stroke="none" stroke-width="none" transform="translate(-125.5200138092041,21.23657209123885)" style="fill: rgb(255, 255, 255);"></path></g><g class="path" style="transform: scale(0.91); transform-origin: 39.12px -6.56343px; animation: 1s linear -0.188571s infinite normal forwards running breath-09fc12ae-8f38-418b-978e-2e0ce36b42a8;"><path d="M177.36 0L151.04 0L152.00-19.44L151.04-53.60L162.40-55.60L161.28-20.80L161.84-7.84L178.24-9.12L177.36 0" fill="#ffffff" stroke="none" stroke-width="none" transform="translate(-125.5200138092041,21.23657209123885)" style="fill: rgb(255, 255, 255);"></path></g><g class="path" style="transform: scale(0.91); transform-origin: 73.2px -6.56343px; animation: 1s linear -0.0942857s infinite normal forwards running breath-09fc12ae-8f38-418b-978e-2e0ce36b42a8;"><path d="M211.44 0L185.12 0L186.08-19.44L185.12-53.60L196.48-55.60L195.36-20.80L195.92-7.84L212.32-9.12L211.44 0" fill="#ffffff" stroke="none" stroke-width="none" transform="translate(-125.5200138092041,21.23657209123885)" style="fill: rgb(245, 245, 241);"></path></g><g class="path" style="transform: scale(0.91); transform-origin: 106.92px -6.32343px; animation: 1s linear 0s infinite normal forwards running breath-09fc12ae-8f38-418b-978e-2e0ce36b42a8;"><path d="M213.84-7.28L220.08-15.92L220.08-15.92Q226.88-9.12 233.68-9.12L233.68-9.12L233.68-9.12Q237.20-9.12 239.32-10.76L239.32-10.76L239.32-10.76Q241.44-12.40 241.44-15L241.44-15L241.44-15Q241.44-17.60 238.88-19.40L238.88-19.40L238.88-19.40Q236.32-21.20 232.68-22.56L232.68-22.56L232.68-22.56Q229.04-23.92 225.44-25.64L225.44-25.64L225.44-25.64Q221.84-27.36 219.28-30.56L219.28-30.56L219.28-30.56Q216.72-33.76 216.72-38.32L216.72-38.32L216.72-38.32Q216.72-45.52 222.72-50.76L222.72-50.76L222.72-50.76Q228.72-56 236.96-56L236.96-56L236.96-56Q240.72-56 244.24-55.20L244.24-55.20L244.24-55.20Q247.76-54.40 251.04-52.88L251.04-52.88L245.60-41.20L245.60-41.20Q243.36-42.96 239.48-44.44L239.48-44.44L239.48-44.44Q235.60-45.92 232.68-45.92L232.68-45.92L232.68-45.92Q229.76-45.92 227.96-44.52L227.96-44.52L227.96-44.52Q226.16-43.12 226.16-40.80L226.16-40.80L226.16-40.80Q226.16-38.48 228.72-36.68L228.72-36.68L228.72-36.68Q231.28-34.88 234.92-33.52L234.92-33.52L234.92-33.52Q238.56-32.16 242.20-30.52L242.20-30.52L242.20-30.52Q245.84-28.88 248.40-25.68L248.40-25.68L248.40-25.68Q250.96-22.48 250.96-17.92L250.96-17.92L250.96-17.92Q250.96-10.40 244.96-4.76L244.96-4.76L244.96-4.76Q238.96 0.88 230.96 0.88L230.96 0.88L230.96 0.88Q224.96 0.88 220.32-2L220.32-2L220.32-2Q216.24-4.48 214.56-6.40L214.56-6.40L213.84-7.28" fill="#ffffff" stroke="none" stroke-width="none" transform="translate(-125.5200138092041,21.23657209123885)" style="fill: rgb(255, 255, 255);"></path></g></g>
</g>
</g>
<style id="breath-09fc12ae-8f38-418b-978e-2e0ce36b42a8" data-anikit="">@keyframes breath-09fc12ae-8f38-418b-978e-2e0ce36b42a8
{
  0% {
    animation-timing-function: cubic-bezier(0.9647,0.2413,-0.0705,0.7911);
    transform: scale(0.9099999999999999);
  }
  51% {
    animation-timing-function: cubic-bezier(0.9226,0.2631,-0.0308,0.7628);
    transform: scale(1.02994);
  }
  100% {
    transform: scale(0.9099999999999999);
  }
}</style></svg>